<svg xmlns="http://www.w3.org/2000/svg" viewBox="0 0 192 192" width="192" height="192">
  <defs>
    <radialGradient id="bg" cx="50%" cy="35%" r="80%">
      <stop offset="0%" stop-color="#fef9c3" />
      <stop offset="55%" stop-color="#fbbf24" />
      <stop offset="100%" stop-color="#92400e" />
    </radialGradient>
    <radialGradient id="body" cx="40%" cy="35%" r="80%">
      <stop offset="0%" stop-color="#a4d864" />
      <stop offset="55%" stop-color="#6fa83a" />
      <stop offset="100%" stop-color="#3f6e1c" />
    </radialGradient>
    <radialGradient id="belly" cx="50%" cy="55%" r="60%">
      <stop offset="0%" stop-color="#fff5c8" />
      <stop offset="100%" stop-color="#f3c768" />
    </radialGradient>
    <radialGradient id="wing" cx="40%" cy="35%" r="80%">
      <stop offset="0%" stop-color="#ff7a59" />
      <stop offset="100%" stop-color="#c43a1f" />
    </radialGradient>
  </defs>
  <rect width="192" height="192" rx="38" fill="url(#bg)" />
  <g transform="translate(96 102) scale(1.45) translate(-60 -60)">
    <ellipse cx="60" cy="112" rx="34" ry="5" fill="rgba(58,36,23,0.35)" />
    <path d="M16 56 Q4 30 28 26 Q34 38 36 60 Q26 64 16 56 Z" fill="url(#wing)" stroke="#3a2417" stroke-width="2" stroke-linejoin="round"/>
    <path d="M104 56 Q116 30 92 26 Q86 38 84 60 Q94 64 104 56 Z" fill="url(#wing)" stroke="#3a2417" stroke-width="2" stroke-linejoin="round"/>
    <ellipse cx="60" cy="74" rx="34" ry="32" fill="url(#body)" stroke="#3a2417" stroke-width="2.5"/>
    <ellipse cx="60" cy="82" rx="20" ry="18" fill="url(#belly)" stroke="#3a2417" stroke-width="1.5"/>
    <circle cx="60" cy="46" r="26" fill="url(#body)" stroke="#3a2417" stroke-width="2.5"/>
    <path d="M44 24 L46 16 L52 22 L56 14 L60 22 L64 14 L68 22 L74 16 L76 24 Z" fill="#3f6e1c" stroke="#3a2417" stroke-width="2" stroke-linejoin="round"/>
    <path d="M40 28 Q34 18 38 12 Q44 18 44 28 Z" fill="#fff5c8" stroke="#3a2417" stroke-width="2"/>
    <path d="M80 28 Q86 18 82 12 Q76 18 76 28 Z" fill="#fff5c8" stroke="#3a2417" stroke-width="2"/>
    <ellipse cx="50" cy="44" rx="6" ry="7" fill="#ffffff" stroke="#3a2417" stroke-width="1.5"/>
    <ellipse cx="70" cy="44" rx="6" ry="7" fill="#ffffff" stroke="#3a2417" stroke-width="1.5"/>
    <circle cx="51" cy="45" r="3" fill="#1a1a1a"/>
    <circle cx="71" cy="45" r="3" fill="#1a1a1a"/>
    <circle cx="49.5" cy="43.5" r="1" fill="#ffffff"/>
    <circle cx="69.5" cy="43.5" r="1" fill="#ffffff"/>
    <circle cx="56" cy="56" r="1.4" fill="#3a2417"/>
    <circle cx="64" cy="56" r="1.4" fill="#3a2417"/>
    <path d="M52 62 Q60 66 68 62" fill="none" stroke="#3a2417" stroke-width="2.4" stroke-linecap="round"/>
    <circle cx="42" cy="56" r="3" fill="#ff8aa3" opacity="0.6"/>
    <circle cx="78" cy="56" r="3" fill="#ff8aa3" opacity="0.6"/>
  </g>
</svg>
